<?xml version="1.0" standalone="no"?>
<!DOCTYPE svg PUBLIC "-//W3C//DTD SVG 20010904//EN"
 "http://www.w3.org/TR/2001/REC-SVG-20010904/DTD/svg10.dtd">
<svg version="1.0" xmlns="http://www.w3.org/2000/svg"
 width="225.000000pt" height="225.000000pt" viewBox="0 0 225.000000 225.000000"
 preserveAspectRatio="xMidYMid meet">
<metadata>
Created by potrace 1.14, written by Peter Selinger 2001-2017
</metadata>
<g transform="translate(0.000000,225.000000) scale(0.100000,-0.100000)"
fill="#000000" stroke="none">
<path d="M975 1739 c-27 -6 -116 -25 -198 -44 -168 -40 -313 -65 -373 -65 -30
0 -53 -9 -85 -31 -54 -39 -117 -98 -131 -123 -6 -10 9 0 33 23 85 83 116 94
269 102 74 4 207 17 295 28 347 43 366 42 579 -53 66 -30 135 -57 151 -61 17
-4 134 -9 260 -10 205 -3 238 -5 300 -25 39 -12 74 -26 80 -31 5 -5 -77 -9
-206 -9 l-215 0 -37 -50 -37 -50 90 0 90 0 0 -140 0 -140 60 0 60 0 0 140 0
140 68 0 68 0 38 50 c36 48 38 52 22 69 -29 31 -109 69 -171 80 -33 6 -127 15
-210 21 -223 16 -242 21 -413 107 l-154 77 -91 3 c-51 1 -114 -3 -142 -8z"/>
<path d="M1190 1576 c0 -3 18 -15 40 -26 22 -11 40 -21 40 -23 0 -1 -90 0
-200 1 -206 4 -364 -12 -448 -43 -35 -14 -33 -14 38 -7 100 9 571 9 685 -1 82
-7 88 -6 68 8 -39 28 -223 103 -223 91z"/>
<path d="M125 1393 l-35 -53 189 0 c199 0 217 -4 209 -47 -7 -35 -46 -43 -225
-43 l-173 0 0 -95 0 -95 60 0 60 0 0 50 0 50 93 0 92 -1 39 -49 39 -50 81 0
80 0 -59 61 c-41 42 -56 63 -46 66 7 3 27 18 44 32 41 37 50 113 17 154 -43
55 -70 62 -257 67 l-172 5 -36 -52z"/>
<path d="M1190 1430 c-18 -18 -20 -33 -20 -195 l0 -175 50 0 50 0 0 110 c0 61
2 110 5 110 4 0 60 -48 126 -107 137 -123 156 -134 193 -109 l26 16 0 180 0
180 -50 0 -49 0 -3 -112 -3 -113 -105 95 c-168 153 -180 160 -220 120z"/>
<path d="M680 1250 l0 -190 188 0 187 1 33 44 c17 24 32 47 32 50 0 3 -72 5
-160 5 l-160 0 0 25 0 25 119 0 119 0 32 43 31 42 -151 3 c-142 2 -150 4 -150
22 0 19 7 20 123 20 l123 0 25 32 c57 76 76 68 -170 68 l-221 0 0 -190z"/>
<path d="M90 820 l0 -160 1040 0 c572 0 1040 3 1040 8 0 4 -12 40 -26 80 l-27
72 27 73 c14 39 26 75 26 80 0 4 -468 7 -1040 7 l-1040 0 0 -160z m367 78 c41
-44 143 -174 143 -182 0 -3 -63 -6 -140 -6 -77 0 -140 3 -140 8 1 4 9 17 19
29 14 16 31 23 70 25 l53 3 -29 37 c-15 21 -31 37 -35 38 -4 0 -33 -31 -64
-70 -55 -67 -60 -70 -101 -70 -24 0 -43 2 -43 5 0 3 39 53 86 110 77 93 90
105 118 105 23 0 41 -9 63 -32z m353 -36 c0 -40 5 -73 12 -80 12 -12 114 -17
142 -6 13 5 16 22 16 80 l0 74 40 0 40 0 0 -80 c0 -74 -2 -83 -25 -104 -59
-55 -238 -48 -285 11 -16 21 -20 40 -20 99 l0 74 40 0 40 0 0 -68z m715 38
c-23 -24 -37 -30 -72 -30 l-43 0 0 -80 0 -80 -40 0 -40 0 0 80 0 80 -55 0
c-30 0 -55 3 -55 7 0 4 10 17 22 30 21 22 28 23 167 23 l145 0 -29 -30z m439
16 c61 -26 83 -85 51 -145 -21 -41 -66 -56 -170 -56 -104 0 -149 15 -170 56
-31 59 -11 119 49 145 42 18 197 18 240 0z"/>
<path d="M1785 873 c-46 -12 -61 -56 -29 -87 18 -19 143 -23 175 -6 23 13 26
62 4 80 -16 13 -118 22 -150 13z"/>
</g>
</svg>
